<svg xmlns="http://www.w3.org/2000/svg" width="24" height="24" viewBox="0 0 24 24" fill="#787878">
    <path fill-rule="evenodd" clip-rule="evenodd"
        d="M4.747 6.083 5.802 3.5h12.392l1.056 2.583H4.747Zm11.25 8.662h-3.249v3.25a.75.75 0 0 1-1.5 0v-3.25h-3.25a.75.75 0 0 1 0-1.5h3.25v-3.25a.75.75 0 0 1 1.5 0v3.25h3.25a.75.75 0 0 1 0 1.5Zm4.665-9.118-1.368-3.159A.986.986 0 0 0 18.462 2H5.535a.988.988 0 0 0-.832.468L3.336 5.627C3.116 5.973 3 6.379 3 6.794v14.154C3 21.528 3.447 22 4 22h15.998c.552 0 1-.471 1-1.052V6.794c0-.415-.117-.82-.336-1.167Z"
        fill="#787878" />
</svg>