<svg width="24" height="24" viewBox="0 0 24 24" fill="none" xmlns="http://www.w3.org/2000/svg">
    <path fill-rule="evenodd" clip-rule="evenodd" d="M20.64 12.2042C20.64 11.566 20.5827 10.9524 20.4764 10.3633H12V13.8446H16.8436C16.635 14.9696 16.0009 15.9228 15.0477 16.561V18.8192H17.9564C19.6582 17.2524 20.64 14.9451 20.64 12.2042V12.2042Z" fill="#4285F4"/>
    <path fill-rule="evenodd" clip-rule="evenodd" d="M11.9998 21C14.4298 21 16.467 20.1941 17.9561 18.8195L15.0475 16.5613C14.2416 17.1013 13.2107 17.4204 11.9998 17.4204C9.65567 17.4204 7.67158 15.8372 6.96385 13.71H3.95703V16.0418C5.43794 18.9831 8.48158 21 11.9998 21V21Z" fill="#34A853"/>
    <path fill-rule="evenodd" clip-rule="evenodd" d="M6.96409 13.7098C6.78409 13.1698 6.68182 12.593 6.68182 11.9998C6.68182 11.4066 6.78409 10.8298 6.96409 10.2898V7.95801H3.95727C3.34773 9.17301 3 10.5476 3 11.9998C3 13.4521 3.34773 14.8266 3.95727 16.0416L6.96409 13.7098V13.7098Z" fill="#FBBC05"/>
    <path fill-rule="evenodd" clip-rule="evenodd" d="M12.0427 6.57955C13.3641 6.57955 14.5505 7.03364 15.4832 7.92545L18.0645 5.34409C16.5059 3.89182 14.4686 3 12.0427 3C8.52455 3 5.48091 5.01682 4 7.95818L7.00682 10.29C7.71455 8.16273 9.69864 6.57955 12.0427 6.57955V6.57955Z" fill="#EA4335"/>
</svg>
