<svg xmlns="http://www.w3.org/2000/svg" width="24" height="24" fill="none" viewBox="0 0 24 24"
    class="PAf6mnKF wDjuQJhD">
    <path fill="currentColor" fill-rule="evenodd"
        d="m22.74 10.88-2.11-1.79-.019-.016-8.13-6.898a.74.74 0 0 0-.96 0L1.296 10.85l-.034.029a.736.736 0 0 0-.085 1.04.74.74 0 0 0 1.043.084l1.01-.855.815 10.172c.03.384.351.679.737.679h4.736a.74.74 0 0 0 .74-.738v-4.304h3.486v4.304a.74.74 0 0 0 .74.738h4.736a.74.74 0 0 0 .738-.679l.815-10.172 1.008.855a.74.74 0 0 0 1.043-.084.736.736 0 0 0-.084-1.04Z"
        clip-rule="evenodd"></path>
</svg>