<svg xmlns="http://www.w3.org/2000/svg" width="56" height="56" viewBox="0 0 56 56" fill="none">
    <rect width="56" height="56" fill="#F8F8F8"/>
    <rect x="22.5" y="13.5" width="11" height="11" rx="5.5" fill="#B9BABE" stroke="#B9BABE"/>
    <path d="M41.2202 39.4343C41.2331 39.621 41.0809 39.8 40.8529 39.8H40.8413H40.8296H40.8179H40.8061H40.7942H40.7823H40.7703H40.7582H40.7461H40.7338H40.7216H40.7092H40.6968H40.6843H40.6717H40.6591H40.6464H40.6336H40.6208H40.6079H40.595H40.5819H40.5688H40.5557H40.5424H40.5291H40.5158H40.5023H40.4888H40.4752H40.4616H40.4479H40.4341H40.4203H40.4064H40.3924H40.3784H40.3643H40.3501H40.3359H40.3216H40.3073H40.2928H40.2783H40.2638H40.2492H40.2345H40.2197H40.2049H40.19H40.1751H40.1601H40.145H40.1298H40.1146H40.0994H40.084H40.0686H40.0532H40.0377H40.0221H40.0064H39.9907H39.9749H39.9591H39.9432H39.9272H39.9112H39.8951H39.8789H39.8627H39.8464H39.8301H39.8137H39.7972H39.7807H39.7641H39.7474H39.7307H39.7139H39.6971H39.6802H39.6632H39.6462H39.6291H39.6119H39.5947H39.5775H39.5601H39.5427H39.5253H39.5078H39.4902H39.4726H39.4549H39.4371H39.4193H39.4014H39.3835H39.3655H39.3474H39.3293H39.3111H39.2929H39.2746H39.2563H39.2379H39.2194H39.2009H39.1823H39.1636H39.1449H39.1261H39.1073H39.0884H39.0695H39.0505H39.0314H39.0123H38.9932H38.9739H38.9546H38.9353H38.9159H38.8964H38.8769H38.8573H38.8377H38.818H38.7983H38.7785H38.7586H38.7387H38.7187H38.6987H38.6786H38.6584H38.6382H38.618H38.5977H38.5773H38.5569H38.5364H38.5159H38.4953H38.4746H38.4539H38.4332H38.4124H38.3915H38.3706H38.3496H38.3286H38.3075H38.2864H38.2652H38.2439H38.2226H38.2013H38.1798H38.1584H38.1369H38.1153H38.0937H38.072H38.0503H38.0285H38.0066H37.9847H37.9628H37.9408H37.9187H37.8966H37.8745H37.8523H37.83H37.8077H37.7853H37.7629H37.7404H37.7179H37.6953H37.6727H37.65H37.6273H37.6045H37.5817H37.5588H37.5359H37.5129H37.4899H37.4668H37.4436H37.4204H37.3972H37.3739H37.3506H37.3272H37.3037H37.2802H37.2567H37.2331H37.2095H37.1858H37.162H37.1382H37.1144H37.0905H37.0666H37.0426H37.0185H36.9945H36.9703H36.9461H36.9219H36.8976H36.8733H36.8489H36.8245H36.8H36.7755H36.7509H36.7263H36.7016H36.6769H36.6522H36.6273H36.6025H36.5776H36.5526H36.5276H36.5026H36.4775H36.4524H36.4272H36.4019H36.3767H36.3513H36.326H36.3005H36.2751H36.2496H36.224H36.1984H36.1728H36.1471H36.1213H36.0956H36.0697H36.0438H36.0179H35.992H35.966H35.9399H35.9138H35.8876H35.8615H35.8352H35.8089H35.7826H35.7563H35.7298H35.7034H35.6769H35.6504H35.6238H35.5971H35.5705H35.5437H35.517H35.4902H35.4633H35.4364H35.4095H35.3825H35.3555H35.3285H35.3014H35.2742H35.247H35.2198H35.1925H35.1652H35.1378H35.1104H35.083H35.0555H35.028H35.0004H34.9728H34.9452H34.9175H34.8898H34.862H34.8342H34.8063H34.7784H34.7505H34.7225H34.6945H34.6665H34.6384H34.6102H34.5821H34.5538H34.5256H34.4973H34.469H34.4406H34.4122H34.3837H34.3552H34.3267H34.2981H34.2695H34.2409H34.2122H34.1835H34.1547H34.1259H34.097H34.0682H34.0392H34.0103H33.9813H33.9523H33.9232H33.8941H33.865H33.8358H33.8065H33.7773H33.748H33.7187H33.6893H33.6599H33.6305H33.601H33.5715H33.5419H33.5123H33.4827H33.453H33.4233H33.3936H33.3638H33.334H33.3042H33.2743H33.2444H33.2145H33.1845H33.1545H33.1244H33.0943H33.0642H33.0341H33.0039H32.9736H32.9434H32.9131H32.8827H32.8524H32.822H32.7916H32.7611H32.7306H32.7001H32.6695H32.6389H32.6083H32.5776H32.5469H32.5161H32.4854H32.4546H32.4237H32.3929H32.362H32.3311H32.3001H32.2691H32.2381H32.207H32.1759H32.1448H32.1136H32.0824H32.0512H32.02H31.9887H31.9574H31.926H31.8946H31.8632H31.8318H31.8003H31.7688H31.7373H31.7057H31.6741H31.6425H31.6108H31.5792H31.5475H31.5157H31.4839H31.4521H31.4203H31.3884H31.3565H31.3246H31.2927H31.2607H31.2287H31.1966H31.1645H31.1325H31.1003H31.0682H31.036H31.0038H30.9715H30.9393H30.907H30.8746H30.8423H30.8099H30.7775H30.745H30.7126H30.6801H30.6476H30.615H30.5824H30.5498H30.5172H30.4846H30.4519H30.4192H30.3864H30.3537H30.3209H30.2881H30.2552H30.2223H30.1895H30.1565H30.1236H30.0906H30.0576H30.0246H29.9915H29.9585H29.9254H29.8922H29.8591H29.8259H29.7927H29.7595H29.7262H29.693H29.6597H29.6263H29.593H29.5596H29.5262H29.4928H29.4594H29.4259H29.3924H29.3589H29.3254H29.2918H29.2582H29.2246H29.191H29.1573H29.1236H29.0899H29.0562H29.0225H28.9887H28.9549H28.9211H28.8872H28.8534H28.8195H28.7856H28.7517H28.7177H28.6838H28.6498H28.6158H28.5817H28.5477H28.5136H28.4795H28.4454H28.4113H28.3771H28.3429H28.3087H28.2745H28.2403H28.206H28.1717H28.1374H28.1031H28.0687H28.0344H28H27.9656H27.9313H27.8969H27.8626H27.8283H27.794H27.7597H27.7255H27.6913H27.6571H27.6229H27.5887H27.5546H27.5205H27.4864H27.4523H27.4183H27.3842H27.3502H27.3162H27.2823H27.2483H27.2144H27.1805H27.1466H27.1128H27.0789H27.0451H27.0113H26.9775H26.9438H26.9101H26.8764H26.8427H26.809H26.7754H26.7418H26.7082H26.6747H26.6411H26.6076H26.5741H26.5406H26.5072H26.4738H26.4404H26.407H26.3737H26.3403H26.307H26.2738H26.2405H26.2073H26.1741H26.1409H26.1078H26.0746H26.0415H26.0085H25.9754H25.9424H25.9094H25.8764H25.8435H25.8105H25.7777H25.7448H25.7119H25.6791H25.6463H25.6136H25.5808H25.5481H25.5154H25.4828H25.4502H25.4176H25.385H25.3524H25.3199H25.2874H25.255H25.2225H25.1901H25.1577H25.1254H25.093H25.0607H25.0285H24.9962H24.964H24.9318H24.8997H24.8675H24.8355H24.8034H24.7713H24.7393H24.7073H24.6754H24.6435H24.6116H24.5797H24.5479H24.5161H24.4843H24.4526H24.4208H24.3892H24.3575H24.3259H24.2943H24.2627H24.2312H24.1997H24.1682H24.1368H24.1054H24.074H24.0426H24.0113H23.98H23.9488H23.9176H23.8864H23.8552H23.8241H23.793H23.7619H23.7309H23.6999H23.6689H23.638H23.6071H23.5763H23.5454H23.5146H23.4839H23.4531H23.4224H23.3917H23.3611H23.3305H23.2999H23.2694H23.2389H23.2084H23.178H23.1476H23.1173H23.0869H23.0566H23.0264H22.9961H22.9659H22.9358H22.9057H22.8756H22.8455H22.8155H22.7855H22.7556H22.7257H22.6958H22.666H22.6362H22.6064H22.5767H22.547H22.5173H22.4877H22.4581H22.4285H22.399H22.3695H22.3401H22.3107H22.2813H22.252H22.2227H22.1935H22.1642H22.1351H22.1059H22.0768H22.0477H22.0187H21.9897H21.9608H21.9318H21.903H21.8741H21.8453H21.8165H21.7878H21.7591H21.7305H21.7019H21.6733H21.6448H21.6163H21.5878H21.5594H21.531H21.5027H21.4744H21.4462H21.4179H21.3898H21.3616H21.3335H21.3055H21.2775H21.2495H21.2216H21.1937H21.1658H21.138H21.1102H21.0825H21.0548H21.0272H20.9996H20.972H20.9445H20.917H20.8896H20.8622H20.8348H20.8075H20.7802H20.753H20.7258H20.6986H20.6715H20.6445H20.6175H20.5905H20.5636H20.5367H20.5098H20.483H20.4563H20.4295H20.4029H20.3762H20.3496H20.3231H20.2966H20.2702H20.2437H20.2174H20.1911H20.1648H20.1385H20.1124H20.0862H20.0601H20.0341H20.008H19.9821H19.9562H19.9303H19.9044H19.8787H19.8529H19.8272H19.8016H19.776H19.7504H19.7249H19.6995H19.674H19.6487H19.6233H19.5981H19.5728H19.5476H19.5225H19.4974H19.4724H19.4474H19.4224H19.3975H19.3727H19.3478H19.3231H19.2984H19.2737H19.2491H19.2245H19.2H19.1755H19.1511H19.1267H19.1024H19.0781H19.0539H19.0297H19.0055H18.9815H18.9574H18.9334H18.9095H18.8856H18.8618H18.838H18.8142H18.7905H18.7669H18.7433H18.7198H18.6963H18.6728H18.6494H18.6261H18.6028H18.5796H18.5564H18.5332H18.5101H18.4871H18.4641H18.4412H18.4183H18.3955H18.3727H18.35H18.3273H18.3047H18.2821H18.2596H18.2371H18.2147H18.1923H18.17H18.1477H18.1255H18.1034H18.0813H18.0592H18.0372H18.0153H17.9934H17.9715H17.9497H17.928H17.9063H17.8847H17.8631H17.8416H17.8202H17.7987H17.7774H17.7561H17.7348H17.7136H17.6925H17.6714H17.6504H17.6294H17.6085H17.5876H17.5668H17.5461H17.5254H17.5047H17.4841H17.4636H17.4431H17.4227H17.4023H17.382H17.3618H17.3416H17.3214H17.3013H17.2813H17.2613H17.2414H17.2215H17.2017H17.182H17.1623H17.1427H17.1231H17.1036H17.0841H17.0647H17.0454H17.0261H17.0068H16.9877H16.9686H16.9495H16.9305H16.9116H16.8927H16.8739H16.8551H16.8364H16.8177H16.7991H16.7806H16.7621H16.7437H16.7254H16.7071H16.6889H16.6707H16.6526H16.6345H16.6165H16.5986H16.5807H16.5629H16.5451H16.5274H16.5098H16.4922H16.4747H16.4573H16.4399H16.4225H16.4053H16.3881H16.3709H16.3538H16.3368H16.3198H16.3029H16.2861H16.2693H16.2526H16.2359H16.2193H16.2028H16.1863H16.1699H16.1536H16.1373H16.1211H16.1049H16.0888H16.0728H16.0568H16.0409H16.0251H16.0093H15.9936H15.9779H15.9623H15.9468H15.9314H15.916H15.9006H15.8854H15.8702H15.855H15.8399H15.8249H15.81H15.7951H15.7803H15.7655H15.7508H15.7362H15.7217H15.7072H15.6927H15.6784H15.6641H15.6499H15.6357H15.6216H15.6076H15.5936H15.5797H15.5659H15.5521H15.5384H15.5248H15.5112H15.4977H15.4842H15.4709H15.4576H15.4443H15.4312H15.4181H15.405H15.3921H15.3792H15.3664H15.3536H15.3409H15.3283H15.3157H15.3032H15.2908H15.2784H15.2662H15.2539H15.2418H15.2297H15.2177H15.2058H15.1939H15.1821H15.1704H15.1587H15.1471C14.9191 39.8 14.7669 39.621 14.7798 39.4343C15.2393 32.7831 20.9692 27.5 28 27.5C35.0308 27.5 40.7607 32.7831 41.2202 39.4343Z" fill="#B9BABE" stroke="#B9BABE"/>
</svg>