<svg xmlns="http://www.w3.org/2000/svg" width="48" height="48" viewBox="0 0 48 48" class="z8pxR3UD">
    <g fill="currentColor" fill-rule="evenodd">
        <path
            d="m41.833 43.984-6.86-6.91a.67.67 0 0 0-.473-.197h-27a1.335 1.335 0 0 1-1.333-1.334v-27c0-.736.598-1.334 1.333-1.334h33c.735 0 1.333.598 1.333 1.334zM40.5 5.876h-33a2.67 2.67 0 0 0-2.667 2.667v27A2.67 2.67 0 0 0 7.5 38.21h26.723l7.804 7.861a.666.666 0 0 0 1.14-.469V8.542A2.67 2.67 0 0 0 40.5 5.877z">
        </path>
        <path
            d="M14.236 28.326v-3.354h3.352v3.354zm1.676-12.854a1.817 1.817 0 1 1 0 3.634 1.817 1.817 0 0 1 0-3.634m4.331 7.824v-2.235h5.589v2.235zm8.517-8.72c3.76 0 6.81 2.22 6.81 7.602s-3.05 7.602-6.81 7.602z">
        </path>
    </g>
</svg>