<svg xmlns="http://www.w3.org/2000/svg" width="24" height="24" fill="none" viewBox="0 0 24 24" class="b8mdJZiw">
    <path fill="currentColor" fill-rule="evenodd" d="M16.024 7.975a3.501 3.501 0 1 0 4.949-4.95 3.501 3.501 0 0 0-4.948 4.95Zm1.061-3.889a2 2 0 1 1 2.83 2.828 2 2 0 0 1-2.83-2.828m-1.06 16.89a3.501 3.501 0 1 0 4.949-4.95 3.501 3.501 0 0 0-4.95 4.95Zm1.06-3.89a2 2 0 1 1 2.83 2.828 2 2 0 0 1-2.83-2.828m-9.11-2.61a3.5 3.5 0 1 1-4.95-4.95 3.5 3.5 0 0 1 4.95 4.95m-1.06-3.89a2 2 0 1 0-2.83 2.828 2 2 0 0 0 2.83-2.828" clip-rule="evenodd"></path>
    <path fill="currentColor" d="m7.478 13.9.75-1.3 7.794 4.5-.75 1.3zm1.272-2.101-.75-1.3L15.794 6l.75 1.3z"></path>
</svg>